<svg xmlns="http://www.w3.org/2000/svg" version="1.1" xmlns:xlink="http://www.w3.org/1999/xlink" viewBox="0 0 200 200"><rect width="200" height="200" fill="url('#gradient')"></rect><defs><linearGradient id="gradient" gradientTransform="rotate(320 0.5 0.5)"><stop offset="0%" stop-color="#687b82"></stop><stop offset="100%" stop-color="#211c17"></stop></linearGradient></defs><g><g fill="#385640" transform="matrix(2.1472801282841987,0,0,2.1472801282841987,13.694646590070981,115.27141913071328)" stroke="#7c8947" stroke-width="0.9"><path d="M11.65-12.46L4.92-2.64L11.72-2.64L11.72 0L0.64 0L0.64-1.81L7.42-11.57L0.61-11.57L0.61-14.22L11.65-14.22L11.65-12.46ZM22.36 0L19.07 0Q18.90-0.32 18.76-0.95L18.76-0.95Q17.85 0.20 16.22 0.20L16.22 0.20Q14.73 0.20 13.68-0.71Q12.64-1.61 12.64-2.98L12.64-2.98Q12.64-4.70 13.91-5.58Q15.18-6.46 17.60-6.46L17.60-6.46L18.61-6.46L18.61-7.01Q18.61-8.47 17.35-8.47L17.35-8.47Q16.18-8.47 16.18-7.31L16.18-7.31L12.89-7.31Q12.89-8.85 14.19-9.80Q15.50-10.76 17.52-10.76Q19.54-10.76 20.71-9.78Q21.88-8.79 21.91-7.07L21.91-7.07L21.91-2.39Q21.93-0.94 22.36-0.17L22.36-0.17L22.36 0ZM17.01-2.15L17.01-2.15Q17.63-2.15 18.03-2.41Q18.44-2.68 18.61-3.01L18.61-3.01L18.61-4.70L17.66-4.70Q15.94-4.70 15.94-3.15L15.94-3.15Q15.94-2.71 16.24-2.43Q16.54-2.15 17.01-2.15ZM30.19-10.64L30.13-7.59L29.04-7.67Q27.49-7.67 27.05-6.69L27.05-6.69L27.05 0L23.76 0L23.76-10.57L26.85-10.57L26.95-9.21Q27.78-10.76 29.27-10.76L29.27-10.76Q29.79-10.76 30.19-10.64L30.19-10.64ZM36.85-2.97L36.85-2.97Q36.85-3.39 36.41-3.64Q35.97-3.90 34.74-4.17Q33.51-4.44 32.71-4.89Q31.90-5.33 31.48-5.97Q31.06-6.60 31.06-7.42L31.06-7.42Q31.06-8.88 32.27-9.82Q33.47-10.76 35.41-10.76L35.41-10.76Q37.50-10.76 38.77-9.81Q40.04-8.87 40.04-7.32L40.04-7.32L36.74-7.32Q36.74-8.59 35.40-8.59L35.40-8.59Q34.88-8.59 34.53-8.31Q34.18-8.02 34.18-7.59L34.18-7.59Q34.18-7.15 34.61-6.88Q35.04-6.60 35.98-6.43Q36.92-6.25 37.64-6.01L37.64-6.01Q40.02-5.19 40.02-3.07L40.02-3.07Q40.02-1.62 38.74-0.71Q37.45 0.20 35.41 0.20L35.41 0.20Q34.05 0.20 32.99-0.29Q31.92-0.78 31.33-1.62Q30.73-2.46 30.73-3.39L30.73-3.39L33.81-3.39Q33.83-2.66 34.30-2.32Q34.77-1.98 35.50-1.98L35.50-1.98Q36.17-1.98 36.51-2.26Q36.85-2.53 36.85-2.97ZM50.80 0L47.51 0Q47.33-0.32 47.20-0.95L47.20-0.95Q46.29 0.20 44.66 0.20L44.66 0.20Q43.16 0.20 42.12-0.71Q41.07-1.61 41.07-2.98L41.07-2.98Q41.07-4.70 42.34-5.58Q43.61-6.46 46.04-6.46L46.04-6.46L47.05-6.46L47.05-7.01Q47.05-8.47 45.79-8.47L45.79-8.47Q44.62-8.47 44.62-7.31L44.62-7.31L41.33-7.31Q41.33-8.85 42.63-9.80Q43.94-10.76 45.96-10.76Q47.98-10.76 49.15-9.78Q50.32-8.79 50.35-7.07L50.35-7.07L50.35-2.39Q50.37-0.94 50.80-0.17L50.80-0.17L50.80 0ZM45.45-2.15L45.45-2.15Q46.06-2.15 46.47-2.41Q46.88-2.68 47.05-3.01L47.05-3.01L47.05-4.70L46.09-4.70Q44.38-4.70 44.38-3.15L44.38-3.15Q44.38-2.71 44.68-2.43Q44.98-2.15 45.45-2.15ZM66.26-8.30L66.26-5.66L60.73-5.66L60.73 0L57.30 0L57.30-14.22L66.82-14.22L66.82-11.57L60.73-11.57L60.73-8.30L66.26-8.30ZM76.34-4.81L79.75-4.81Q79.68-3.33 78.95-2.19Q78.21-1.05 76.89-0.43Q75.57 0.20 73.87 0.20L73.87 0.20Q71.06 0.20 69.45-1.63Q67.84-3.46 67.84-6.79L67.84-6.79L67.84-7.49Q67.84-9.58 68.57-11.15Q69.30-12.71 70.66-13.57Q72.03-14.42 73.83-14.42L73.83-14.42Q76.42-14.42 77.99-13.06Q79.56-11.70 79.78-9.31L79.78-9.31L76.36-9.31Q76.32-10.61 75.70-11.17Q75.09-11.74 73.83-11.74L73.83-11.74Q72.55-11.74 71.95-10.78Q71.36-9.82 71.33-7.72L71.33-7.72L71.33-6.72Q71.33-4.44 71.90-3.47Q72.47-2.49 73.87-2.49L73.87-2.49Q75.05-2.49 75.67-3.05Q76.30-3.60 76.34-4.81L76.34-4.81Z"></path></g></g></svg>